<svg width="151" height="28" viewBox="0 0 151 28" fill="none" xmlns="http://www.w3.org/2000/svg">
<path d="M0.952 2.176C1.43733 2.19467 2.072 2.21333 2.856 2.232C3.64 2.25067 4.424 2.26 5.208 2.26C6.104 2.26 6.972 2.25067 7.812 2.232C8.652 2.21333 9.24933 2.204 9.604 2.204C11.9187 2.204 13.6453 2.61467 14.784 3.436C15.9413 4.25733 16.52 5.312 16.52 6.6C16.52 7.25333 16.324 7.916 15.932 8.588C15.54 9.26 14.9333 9.85733 14.112 10.38C13.2907 10.9027 12.2267 11.2853 10.92 11.528V11.584C12.6747 11.7147 14.0653 12.032 15.092 12.536C16.1187 13.04 16.856 13.6467 17.304 14.356C17.752 15.0653 17.976 15.8027 17.976 16.568C17.976 17.744 17.668 18.7333 17.052 19.536C16.436 20.3387 15.5493 20.9547 14.392 21.384C13.2347 21.7947 11.8533 22 10.248 22C9.8 22 9.156 21.9907 8.316 21.972C7.476 21.9347 6.45867 21.916 5.264 21.916C4.44267 21.916 3.64 21.9253 2.856 21.944C2.072 21.944 1.43733 21.9627 0.952 22V21.44C1.54933 21.4027 1.99733 21.328 2.296 21.216C2.59467 21.104 2.79067 20.88 2.884 20.544C2.996 20.208 3.052 19.704 3.052 19.032V5.144C3.052 4.45333 2.996 3.94933 2.884 3.632C2.79067 3.296 2.58533 3.072 2.268 2.96C1.96933 2.82933 1.53067 2.75467 0.952 2.736V2.176ZM9.24 2.736C8.512 2.736 8.036 2.89467 7.812 3.212C7.60667 3.52933 7.504 4.17333 7.504 5.144V19.032C7.504 19.6853 7.55067 20.18 7.644 20.516C7.756 20.852 7.94267 21.076 8.204 21.188C8.484 21.3 8.89467 21.356 9.436 21.356C10.78 21.356 11.76 20.936 12.376 20.096C13.0107 19.2373 13.328 18.024 13.328 16.456C13.328 15.0187 12.964 13.908 12.236 13.124C11.5267 12.34 10.3413 11.948 8.68 11.948H6.3C6.3 11.948 6.3 11.8733 6.3 11.724C6.3 11.556 6.3 11.472 6.3 11.472H8.708C9.58533 11.472 10.2573 11.2667 10.724 10.856C11.1907 10.4267 11.5173 9.86667 11.704 9.176C11.8907 8.46667 11.984 7.71067 11.984 6.908C11.984 5.52667 11.7693 4.49067 11.34 3.8C10.9107 3.09067 10.2107 2.736 9.24 2.736ZM25.0051 0.0759985V19.396C25.0051 20.18 25.1358 20.712 25.3971 20.992C25.6771 21.272 26.1438 21.412 26.7971 21.412V22C26.4424 21.9813 25.9104 21.9627 25.2011 21.944C24.4918 21.9067 23.7731 21.888 23.0451 21.888C22.3171 21.888 21.5798 21.9067 20.8331 21.944C20.1051 21.9627 19.5544 21.9813 19.1811 22V21.412C19.8344 21.412 20.2918 21.272 20.5531 20.992C20.8331 20.712 20.9731 20.18 20.9731 19.396V3.436C20.9731 2.596 20.8424 1.98 20.5811 1.588C20.3384 1.17733 19.8718 0.971999 19.1811 0.971999V0.384C19.7784 0.439999 20.3571 0.467999 20.9171 0.467999C21.6824 0.467999 22.4104 0.439999 23.1011 0.384C23.7918 0.309333 24.4264 0.206666 25.0051 0.0759985ZM31.8524 22.196C31.0124 22.196 30.3124 22.0373 29.7524 21.72C29.1924 21.4027 28.7817 20.9827 28.5204 20.46C28.2591 19.9187 28.1284 19.3307 28.1284 18.696C28.1284 17.8933 28.3057 17.24 28.6604 16.736C29.0337 16.232 29.5097 15.8213 30.0884 15.504C30.6671 15.1867 31.2737 14.9253 31.9084 14.72C32.5617 14.5147 33.1777 14.3187 33.7564 14.132C34.3537 13.9267 34.8297 13.6933 35.1844 13.432C35.5577 13.152 35.7444 12.7973 35.7444 12.368V10.184C35.7444 9.69867 35.6604 9.26933 35.4924 8.896C35.3431 8.504 35.1004 8.20533 34.7644 8C34.4471 7.79467 34.0271 7.692 33.5044 7.692C33.1311 7.692 32.7577 7.748 32.3844 7.86C32.0111 7.95333 31.7031 8.12133 31.4604 8.364C31.9831 8.55067 32.3844 8.84 32.6644 9.232C32.9631 9.60533 33.1124 10.0347 33.1124 10.52C33.1124 11.1547 32.8884 11.6587 32.4404 12.032C32.0111 12.4053 31.4977 12.592 30.9004 12.592C30.2284 12.592 29.7151 12.3867 29.3604 11.976C29.0244 11.5467 28.8564 11.0333 28.8564 10.436C28.8564 9.89467 28.9871 9.44667 29.2484 9.092C29.5284 8.73733 29.9111 8.40133 30.3964 8.084C30.9191 7.78533 31.5444 7.552 32.2724 7.384C33.0191 7.216 33.8217 7.132 34.6804 7.132C35.5391 7.132 36.3137 7.22533 37.0044 7.412C37.6951 7.58 38.2737 7.89733 38.7404 8.364C39.1697 8.79333 39.4497 9.32533 39.5804 9.96C39.7111 10.576 39.7764 11.36 39.7764 12.312V19.928C39.7764 20.3947 39.8231 20.7213 39.9164 20.908C40.0097 21.076 40.1684 21.16 40.3924 21.16C40.5604 21.16 40.7191 21.1133 40.8684 21.02C41.0364 20.9267 41.2137 20.8147 41.4004 20.684L41.6804 21.16C41.2884 21.496 40.8311 21.7573 40.3084 21.944C39.8044 22.112 39.2351 22.196 38.6004 22.196C37.9097 22.196 37.3591 22.1027 36.9484 21.916C36.5377 21.7107 36.2391 21.44 36.0524 21.104C35.8844 20.768 35.8004 20.376 35.8004 19.928C35.3524 20.6373 34.8111 21.1973 34.1764 21.608C33.5417 22 32.7671 22.196 31.8524 22.196ZM33.8404 20.404C34.2137 20.404 34.5497 20.32 34.8484 20.152C35.1657 19.9653 35.4644 19.6667 35.7444 19.256V13.516C35.5764 13.796 35.3431 14.048 35.0444 14.272C34.7457 14.496 34.4284 14.7293 34.0924 14.972C33.7564 15.196 33.4297 15.448 33.1124 15.728C32.8137 16.008 32.5711 16.3533 32.3844 16.764C32.1977 17.1747 32.1044 17.6693 32.1044 18.248C32.1044 18.976 32.2631 19.5173 32.5804 19.872C32.8977 20.2267 33.3177 20.404 33.8404 20.404ZM49.7606 7.132C50.4886 7.132 51.1513 7.216 51.7486 7.384C52.3646 7.53333 52.8686 7.72933 53.2606 7.972C53.7459 8.27067 54.1193 8.644 54.3806 9.092C54.6606 9.52133 54.8006 10.0253 54.8006 10.604C54.8006 11.2573 54.5953 11.7987 54.1846 12.228C53.7739 12.6387 53.2419 12.844 52.5886 12.844C51.9353 12.844 51.4126 12.6573 51.0206 12.284C50.6286 11.9107 50.4326 11.4067 50.4326 10.772C50.4326 10.1747 50.6193 9.68 50.9926 9.288C51.3659 8.87733 51.7953 8.60667 52.2806 8.476C52.1313 8.28933 51.9073 8.13067 51.6086 8C51.3099 7.86933 50.9739 7.804 50.6006 7.804C50.0219 7.804 49.5086 7.972 49.0606 8.308C48.6313 8.644 48.2673 9.11067 47.9686 9.708C47.6699 10.3053 47.4366 11.0053 47.2686 11.808C47.1193 12.6107 47.0446 13.488 47.0446 14.44C47.0446 15.8773 47.2219 17.0067 47.5766 17.828C47.9499 18.6493 48.4166 19.228 48.9766 19.564C49.5553 19.9 50.1526 20.068 50.7686 20.068C51.1233 20.068 51.5059 20.012 51.9166 19.9C52.3459 19.788 52.7753 19.564 53.2046 19.228C53.6526 18.892 54.0633 18.416 54.4366 17.8L54.9126 17.968C54.7073 18.6587 54.3713 19.3493 53.9046 20.04C53.4379 20.7307 52.8313 21.3 52.0846 21.748C51.3379 22.1773 50.4233 22.392 49.3406 22.392C48.1273 22.392 47.0259 22.1307 46.0366 21.608C45.0659 21.0667 44.2819 20.2453 43.6846 19.144C43.1059 18.024 42.8166 16.5867 42.8166 14.832C42.8166 13.152 43.1153 11.7427 43.7126 10.604C44.3286 9.44667 45.1593 8.57867 46.2046 8C47.2499 7.42133 48.4353 7.132 49.7606 7.132ZM62.0552 0.0759985V19.396C62.0552 20.18 62.1766 20.712 62.4192 20.992C62.6806 21.272 63.1192 21.412 63.7352 21.412V22C63.3806 21.9813 62.8579 21.9627 62.1672 21.944C61.4952 21.9067 60.8046 21.888 60.0952 21.888C59.3672 21.888 58.6299 21.9067 57.8832 21.944C57.1552 21.9627 56.6046 21.9813 56.2312 22V21.412C56.8846 21.412 57.3419 21.272 57.6032 20.992C57.8832 20.712 58.0232 20.18 58.0232 19.396V3.436C58.0232 2.596 57.8926 1.98 57.6312 1.588C57.3886 1.17733 56.9219 0.971999 56.2312 0.971999V0.384C56.8286 0.439999 57.4072 0.467999 57.9672 0.467999C58.7326 0.467999 59.4606 0.439999 60.1512 0.384C60.8419 0.309333 61.4766 0.206666 62.0552 0.0759985ZM71.1832 7.524V8.084C70.6046 8.196 70.0259 8.43867 69.4472 8.812C68.8686 9.18533 68.2806 9.66133 67.6832 10.24L65.5272 12.48L65.8072 11.948L70.5952 19.956C70.8006 20.292 71.0152 20.5907 71.2392 20.852C71.4632 21.1133 71.7339 21.3 72.0512 21.412V22C71.7712 21.9813 71.3512 21.9627 70.7912 21.944C70.2312 21.9067 69.6712 21.888 69.1112 21.888C68.4206 21.888 67.7299 21.9067 67.0392 21.944C66.3486 21.9627 65.8352 21.9813 65.4992 22V21.412C65.8726 21.412 66.1246 21.328 66.2552 21.16C66.3859 20.9733 66.3672 20.74 66.1992 20.46L63.4272 15.448C63.2032 15.0933 62.9792 14.8693 62.7552 14.776C62.5499 14.664 62.2699 14.5987 61.9152 14.58V14.048C62.3072 14.0107 62.6432 13.9453 62.9232 13.852C63.2219 13.7587 63.4926 13.5813 63.7352 13.32L65.8632 11.248C66.4979 10.6507 66.8152 10.1187 66.8152 9.652C66.8152 9.18533 66.6099 8.812 66.1992 8.532C65.8072 8.252 65.2846 8.10267 64.6312 8.084V7.524C65.1539 7.54267 65.7232 7.56133 66.3392 7.58C66.9552 7.59867 67.4779 7.608 67.9072 7.608C68.2806 7.608 68.6726 7.608 69.0832 7.608C69.5126 7.58933 69.9139 7.58 70.2872 7.58C70.6606 7.56133 70.9592 7.54267 71.1832 7.524ZM92.9661 2.176C92.6861 2.904 92.3968 3.79067 92.0981 4.836C91.7995 5.86267 91.4915 7.12267 91.1741 8.616H90.5581C90.7075 7.664 90.7728 6.83333 90.7541 6.124C90.7541 5.41467 90.6048 4.79867 90.3061 4.276C89.9515 3.62267 89.4941 3.156 88.9341 2.876C88.3741 2.596 87.7301 2.456 87.0021 2.456C86.0688 2.456 85.1728 2.708 84.3141 3.212C83.4555 3.716 82.6621 4.416 81.9341 5.312C81.2061 6.18933 80.5621 7.20667 80.0021 8.364C79.4608 9.50267 79.0315 10.7253 78.7141 12.032C78.4155 13.3387 78.2661 14.664 78.2661 16.008C78.2661 17.912 78.6021 19.312 79.2741 20.208C79.9648 21.104 80.8888 21.552 82.0461 21.552C82.7368 21.552 83.4648 21.3933 84.2301 21.076C84.9955 20.7587 85.6675 20.3013 86.2461 19.704C86.7501 19.1813 87.1795 18.584 87.5341 17.912C87.9075 17.24 88.3181 16.3627 88.7661 15.28H89.3821C88.9155 16.9787 88.5515 18.3507 88.2901 19.396C88.0475 20.4227 87.8608 21.2907 87.7301 22H87.1141C87.1701 21.608 87.1981 21.2907 87.1981 21.048C87.1981 20.656 87.1235 20.4227 86.9741 20.348C86.8248 20.2733 86.5915 20.348 86.2741 20.572C85.7701 20.908 85.2381 21.216 84.6781 21.496C84.1368 21.776 83.5488 21.9907 82.9141 22.14C82.2795 22.308 81.5701 22.392 80.7861 22.392C78.2475 22.392 76.3621 21.7947 75.1301 20.6C73.8981 19.3867 73.2821 17.6693 73.2821 15.448C73.2821 14.1413 73.4875 12.8347 73.8981 11.528C74.3275 10.2213 74.9341 8.98933 75.7181 7.832C76.5208 6.656 77.4728 5.62 78.5741 4.724C79.6941 3.80933 80.9355 3.09067 82.2981 2.568C83.6608 2.04533 85.1168 1.784 86.6661 1.784C87.4315 1.784 88.0661 1.868 88.5701 2.036C89.0928 2.204 89.5315 2.428 89.8861 2.708C90.2408 2.988 90.5581 3.28667 90.8381 3.604C91.0808 3.884 91.3235 3.912 91.5661 3.688C91.8088 3.464 92.0795 2.96 92.3781 2.176H92.9661ZM100.623 7.692C100.194 7.692 99.7368 7.95333 99.2515 8.476C98.7848 8.98 98.3181 9.66133 97.8515 10.52C97.4035 11.3787 96.9928 12.34 96.6195 13.404C96.2648 14.468 95.9755 15.5693 95.7515 16.708C95.5461 17.828 95.4435 18.9013 95.4435 19.928C95.4435 20.6 95.5181 21.0853 95.6675 21.384C95.8355 21.6827 96.0781 21.832 96.3955 21.832C96.8248 21.832 97.2728 21.5893 97.7395 21.104C98.2061 20.6 98.6635 19.928 99.1115 19.088C99.5595 18.248 99.9608 17.3053 100.315 16.26C100.689 15.196 100.987 14.0947 101.211 12.956C101.435 11.8173 101.547 10.716 101.547 9.652C101.547 8.868 101.463 8.34533 101.295 8.084C101.146 7.82267 100.922 7.692 100.623 7.692ZM91.6915 17.772C91.6915 16.9133 91.8035 15.9987 92.0275 15.028C92.2701 14.0573 92.6341 13.1053 93.1195 12.172C93.6048 11.2387 94.2021 10.3987 94.9115 9.652C95.6395 8.88667 96.4888 8.28 97.4595 7.832C98.4488 7.36533 99.5501 7.132 100.763 7.132C102.201 7.132 103.311 7.524 104.095 8.308C104.898 9.092 105.299 10.24 105.299 11.752C105.299 12.6107 105.178 13.5253 104.935 14.496C104.711 15.4667 104.357 16.4187 103.871 17.352C103.386 18.2853 102.779 19.1347 102.051 19.9C101.342 20.6467 100.493 21.2533 99.5035 21.72C98.5328 22.168 97.4408 22.392 96.2275 22.392C94.7901 22.392 93.6701 22 92.8675 21.216C92.0835 20.432 91.6915 19.284 91.6915 17.772ZM107.632 8.084L107.8 7.524H117.236L117.068 8.084H107.632ZM109.228 26.872C108.444 26.8907 107.725 26.928 107.072 26.984C106.437 27.04 105.812 27.1333 105.196 27.264L110.236 8.504C110.609 7.12267 111.085 5.94667 111.664 4.976C112.242 4.00533 112.849 3.268 113.484 2.764C114.193 2.24133 114.958 1.85867 115.78 1.616C116.62 1.35467 117.497 1.224 118.412 1.224C119.308 1.224 120.054 1.37333 120.652 1.672C121.268 1.97067 121.725 2.288 122.024 2.624L121.716 3.072C121.473 2.75467 121.146 2.49333 120.736 2.288C120.325 2.064 119.812 1.952 119.196 1.952C118.43 1.952 117.758 2.13867 117.18 2.512C116.62 2.88533 116.125 3.44533 115.696 4.192C115.285 4.93867 114.921 5.88133 114.604 7.02L109.228 26.872ZM116.676 8.084L116.844 7.524H126.112L125.944 8.084H116.676ZM126.868 0.607998C126.569 0.607998 126.298 0.663999 126.056 0.776C125.832 0.869333 125.617 0.999999 125.412 1.168C125.169 1.392 124.945 1.70933 124.74 2.12C124.553 2.512 124.376 2.988 124.208 3.548C124.04 4.08933 123.862 4.696 123.676 5.368L117.908 26.872C117.124 26.8907 116.405 26.928 115.752 26.984C115.117 27.04 114.492 27.1333 113.876 27.264L119.112 7.776C119.522 6.18933 119.989 4.88267 120.512 3.856C121.034 2.81067 121.669 1.98933 122.416 1.392C122.938 0.962665 123.536 0.645332 124.208 0.439999C124.88 0.215998 125.589 0.103998 126.336 0.103998C127.512 0.103998 128.426 0.346665 129.08 0.831999C129.733 1.31733 130.06 1.97067 130.06 2.792C130.06 3.16533 129.948 3.548 129.724 3.94C129.5 4.31333 129.192 4.62133 128.8 4.864C128.426 5.10667 127.988 5.228 127.484 5.228C126.924 5.228 126.485 5.09733 126.168 4.836C125.85 4.57467 125.692 4.20133 125.692 3.716C125.692 3.1 125.878 2.54933 126.252 2.064C126.644 1.57867 127.166 1.21467 127.82 0.971999C127.745 0.878665 127.624 0.794665 127.456 0.719999C127.288 0.645332 127.092 0.607998 126.868 0.607998ZM128.356 15.924C129.121 15.6253 129.849 15.2893 130.54 14.916C131.23 14.5427 131.818 14.132 132.304 13.684C133.032 13.0307 133.61 12.2747 134.04 11.416C134.488 10.5387 134.712 9.596 134.712 8.588C134.712 8.21467 134.674 7.972 134.6 7.86C134.525 7.72933 134.413 7.664 134.264 7.664C133.853 7.664 133.405 7.87867 132.919 8.308C132.453 8.71867 131.986 9.27867 131.52 9.988C131.053 10.6787 130.624 11.472 130.232 12.368C129.858 13.264 129.55 14.1973 129.308 15.168C129.084 16.1387 128.972 17.0813 128.972 17.996C128.972 19.0413 129.168 19.76 129.56 20.152C129.97 20.5253 130.493 20.712 131.128 20.712C131.632 20.712 132.257 20.544 133.004 20.208C133.75 19.872 134.488 19.2747 135.216 18.416L135.664 18.64C135.272 19.256 134.758 19.8533 134.124 20.432C133.489 21.0107 132.752 21.4867 131.912 21.86C131.072 22.2147 130.157 22.392 129.168 22.392C128.328 22.392 127.572 22.2427 126.9 21.944C126.246 21.6453 125.724 21.2067 125.332 20.628C124.958 20.0307 124.772 19.3027 124.772 18.444C124.772 17.4547 124.93 16.4373 125.248 15.392C125.584 14.3467 126.05 13.3387 126.648 12.368C127.245 11.3787 127.964 10.492 128.803 9.708C129.644 8.90533 130.577 8.28 131.604 7.832C132.63 7.36533 133.722 7.132 134.88 7.132C135.701 7.132 136.392 7.31867 136.952 7.692C137.512 8.04667 137.792 8.59733 137.792 9.344C137.792 10.072 137.586 10.7533 137.176 11.388C136.784 12.0227 136.252 12.6013 135.58 13.124C134.908 13.6467 134.152 14.1133 133.312 14.524C132.49 14.9347 131.641 15.2893 130.764 15.588C129.905 15.8867 129.093 16.12 128.328 16.288L128.356 15.924ZM141.481 15.924C142.246 15.6253 142.974 15.2893 143.665 14.916C144.355 14.5427 144.943 14.132 145.429 13.684C146.157 13.0307 146.735 12.2747 147.165 11.416C147.613 10.5387 147.837 9.596 147.837 8.588C147.837 8.21467 147.799 7.972 147.725 7.86C147.65 7.72933 147.538 7.664 147.389 7.664C146.978 7.664 146.53 7.87867 146.044 8.308C145.578 8.71867 145.111 9.27867 144.645 9.988C144.178 10.6787 143.749 11.472 143.357 12.368C142.983 13.264 142.675 14.1973 142.433 15.168C142.209 16.1387 142.097 17.0813 142.097 17.996C142.097 19.0413 142.293 19.76 142.685 20.152C143.095 20.5253 143.618 20.712 144.253 20.712C144.757 20.712 145.382 20.544 146.129 20.208C146.875 19.872 147.613 19.2747 148.341 18.416L148.789 18.64C148.397 19.256 147.883 19.8533 147.249 20.432C146.614 21.0107 145.877 21.4867 145.037 21.86C144.197 22.2147 143.282 22.392 142.293 22.392C141.453 22.392 140.697 22.2427 140.025 21.944C139.371 21.6453 138.849 21.2067 138.457 20.628C138.083 20.0307 137.897 19.3027 137.897 18.444C137.897 17.4547 138.055 16.4373 138.373 15.392C138.709 14.3467 139.175 13.3387 139.773 12.368C140.37 11.3787 141.089 10.492 141.928 9.708C142.769 8.90533 143.702 8.28 144.729 7.832C145.755 7.36533 146.847 7.132 148.005 7.132C148.826 7.132 149.517 7.31867 150.077 7.692C150.637 8.04667 150.917 8.59733 150.917 9.344C150.917 10.072 150.711 10.7533 150.301 11.388C149.909 12.0227 149.377 12.6013 148.705 13.124C148.033 13.6467 147.277 14.1133 146.437 14.524C145.615 14.9347 144.766 15.2893 143.889 15.588C143.03 15.8867 142.218 16.12 141.453 16.288L141.481 15.924Z" fill="#0B1D03"/>
</svg>
